<svg width="330" height="330" viewBox="0 0 330 330" fill="none" xmlns="http://www.w3.org/2000/svg">
<mask id="mask0" mask-type="alpha" maskUnits="userSpaceOnUse" x="0" y="0" width="330" height="330">
<circle cx="165" cy="165" r="165" fill="#F2F2F2"/>
</mask>
<g mask="url(#mask0)">
<circle cx="165" cy="165" r="165" fill="#F2F2F2"/>
<path fill-rule="evenodd" clip-rule="evenodd" d="M83.2308 93.4725C71.7613 96.5457 64.9547 108.335 68.028 119.804L74.8123 145.124C77.817 156.337 89.1528 163.094 100.376 160.518C100.38 160.53 100.384 160.542 100.388 160.555L130.734 152.423C134.201 146.588 122.124 119.115 114.893 106.41C111.506 95.4123 99.9929 88.9811 88.7849 91.9843L83.2308 93.4725Z" fill="#191847"/>
<path fill-rule="evenodd" clip-rule="evenodd" d="M99.9669 143.002C107.836 145.264 115.021 145.45 117.931 143.808C125.228 139.692 118.28 110.879 109.193 101.221C100.106 91.5627 67.6149 94.9977 72.0336 117.774C73.5672 125.678 78.686 131.728 85.0217 136.086L87.1548 178.63L112.269 171.901L99.9669 143.002Z" fill="#B28B67"/>
<path fill-rule="evenodd" clip-rule="evenodd" d="M68.7456 118.794C69.2819 117.879 69.8007 116.994 70.3337 116.183L70.0824 115.38C70.0824 115.38 73.6483 97.1597 85.7659 93.9128C97.8726 90.6688 103.207 95.2614 107.741 99.1653L107.753 99.1759C107.614 105.463 103.115 109.197 98.0273 113.42C95.8373 115.238 93.538 117.146 91.4303 119.388C90.2254 118.85 88.8344 118.707 87.4597 119.076C84.2811 119.927 82.3936 123.19 83.2438 126.363C84.094 129.536 87.36 131.418 90.5386 130.566C90.6262 130.543 90.7129 130.518 90.7986 130.49C95.2803 142.588 98.6134 156.882 96.0662 161.169L65.7201 169.3C60.8005 154.425 63.5609 149.065 66.3817 143.589C69.0358 138.436 71.7433 133.18 68.1567 119.795C68.3562 119.459 68.552 119.125 68.7455 118.795L68.7456 118.794Z" fill="#191847"/>
<path fill-rule="evenodd" clip-rule="evenodd" d="M149.289 392.72C149.038 392.344 148.827 391.935 148.659 391.492C145.185 382.321 89.5433 283.387 84 265.299H146.645C150.86 279.052 169.829 365.355 172.499 382.573C180.922 409.734 198.265 497.698 200.479 503.791C202.808 510.202 189.703 516.88 186.211 508.999C180.655 496.459 167.415 461.761 161.52 440.574C155.994 420.712 151.494 402.843 149.289 392.72Z" fill="#997659"/>
<path fill-rule="evenodd" clip-rule="evenodd" d="M98.037 404.799C72.5985 411.218 -20.4504 422.821 -26.8358 424.641C-33.4044 426.513 -39.1638 412.997 -31.0447 410.069C-18.1258 405.411 17.4718 394.647 39.0547 390.254C56.4147 386.721 72.2559 383.838 82.8913 382.15C81.9903 352.327 77.8715 280.757 80.5711 265.299H136C133.411 280.122 111.528 388.279 107.46 399.105C106.17 402.97 102.318 404.679 98.037 404.799Z" fill="#B28B67"/>
<path fill-rule="evenodd" clip-rule="evenodd" d="M80.75 265.299C80.75 265.299 117.389 254.835 150.083 265.299C157.667 299.838 176.093 313.547 179.333 366.5C142.5 384.77 97 353.47 59.0833 371.287C48.25 346.366 63.4166 286.349 80.75 265.299Z" fill="#2B44FF"/>
<path fill-rule="evenodd" clip-rule="evenodd" d="M172.025 167.302L138.564 194.078L154.823 206.319L177.394 176.98C190.881 170.581 196.86 166.585 195.331 164.993C194.042 163.65 192.406 163.993 190.899 164.309C189.725 164.555 188.629 164.785 187.837 164.189C186.028 162.827 187.926 156.614 189.979 150.796C192.033 144.977 188.92 146.001 187.228 147.084C181.964 152.177 176.896 158.916 172.025 167.302ZM214.267 189.146L199.574 200.934L203.373 217.066C203.373 217.066 212.57 207.618 221.189 203.497C232.178 198.242 236.421 194.962 240.801 186.783C243.145 182.407 244.347 174.229 241.028 172.22C239.754 171.449 236.046 174.454 232.262 177.52C229.378 179.857 226.45 182.229 224.523 182.992C221.929 184.02 221.631 180.482 221.392 177.655C221.22 175.626 221.08 173.964 220.144 174.617C215.397 175.538 214.267 189.146 214.267 189.146Z" fill="#997659"/>
<path fill-rule="evenodd" clip-rule="evenodd" d="M119.735 192.748C132.681 190.324 149.495 184.539 165.889 169.591L175.981 184.448C165.475 199.304 149.403 212.822 133.674 215.143C121.279 216.972 112.349 203.191 119.735 192.748Z" fill="#2026A2"/>
<path fill-rule="evenodd" clip-rule="evenodd" d="M104.243 309.458C91.6296 310.027 80.0391 310.55 73.5573 313.054C61.717 289.958 65.2612 273.477 68.533 258.263C70.5049 249.093 72.3778 240.384 70.7241 230.964C65.9082 203.531 80.5263 157.421 83.7724 156.849L84.7041 156.685L110.429 152.148L113.375 151.629C117.691 168.369 126.58 185.751 135.526 203.244C137.615 207.33 139.708 211.421 141.746 215.512C164.119 216.593 208.897 191.201 208.897 191.201C208.897 191.201 225.348 213.98 226.309 224.746C201.06 244.148 178.368 254.815 158.809 258.704C161.484 270.223 162.017 281.539 159.036 292.491C155.043 307.165 127.851 308.392 104.243 309.458Z" fill="#1F28CF"/>
</g>
<path d="M175.258 135L130 85L175.258 96L288 27L175.258 135Z" fill="#3EF98E"/>
</svg>
