<svg width="72" height="76" viewBox="0 0 72 76" fill="none" xmlns="http://www.w3.org/2000/svg">
<path d="M61.875 68.875L58.5 66.5L55.125 68.875V65.3125H6.75C5.85489 65.3125 4.99645 65.6878 4.36351 66.3559C3.73058 67.024 3.375 67.9302 3.375 68.875C3.375 69.8198 3.73058 70.726 4.36351 71.3941C4.99645 72.0622 5.85489 72.4375 6.75 72.4375H68.625V65.3125H61.875V68.875Z" fill="#9BC9FF"/>
<path d="M52.875 51.0625H48.375V17.8244L48.3638 17.8125H39.375V8.32438L39.3638 8.3125H12.375V51.0625H6.75C5.85489 51.0625 4.99645 51.4378 4.36351 52.1059C3.73058 52.774 3.375 53.6802 3.375 54.625C3.375 55.5698 3.73058 56.476 4.36351 57.1441C4.99645 57.8122 5.85489 58.1875 6.75 58.1875H55.125V55.8125H61.875V58.1875H68.625V51.0625H52.875ZM30.375 20.1875C32.6 20.1875 34.7751 20.884 36.6252 22.1888C38.4752 23.4936 39.9172 25.3483 40.7686 27.5181C41.6201 29.688 41.8429 32.0757 41.4088 34.3792C40.9748 36.6827 39.9033 38.7986 38.33 40.4594C36.7566 42.1201 34.7521 43.2511 32.5698 43.7093C30.3875 44.1675 28.1255 43.9324 26.0698 43.0336C24.0141 42.1348 22.2571 40.6127 21.021 38.6599C19.7848 36.7071 19.125 34.4112 19.125 32.0625C19.125 28.9131 20.3103 25.8926 22.42 23.6656C24.5298 21.4386 27.3913 20.1875 30.375 20.1875Z" fill="#9BC9FF"/>
<path d="M57.375 15.4375H64.125V39.1875H57.375V15.4375Z" fill="#9BC9FF"/>
<path d="M63 5.9375C62.9956 5.30905 62.7571 4.70767 62.3361 4.26327C61.9151 3.81888 61.3454 3.56716 60.75 3.5625C60.1538 3.56438 59.5825 3.81521 59.161 4.2602C58.7394 4.70519 58.5018 5.30819 58.5 5.9375V10.6875H63V5.9375Z" fill="#9BC9FF"/>
<path d="M68.625 49.875H54V3.5625C54 3.24756 53.8815 2.94551 53.6705 2.72281C53.4595 2.50011 53.1734 2.375 52.875 2.375H16.875C16.5766 2.375 16.2905 2.50011 16.0795 2.72281C15.8685 2.94551 15.75 3.24756 15.75 3.5625V7.125H12.375C12.0766 7.125 11.7905 7.25011 11.5795 7.47281C11.3685 7.69551 11.25 7.99756 11.25 8.3125V49.875H6.75C5.83622 49.8757 4.94428 50.17 4.19282 50.7187C3.44135 51.2675 2.86596 52.0448 2.54319 52.9472C2.22041 53.8495 2.16554 54.8342 2.38587 55.7703C2.6062 56.7064 3.09129 57.5495 3.77663 58.1875C3.29699 58.6327 2.91277 59.1807 2.64956 59.795C2.38635 60.4093 2.25021 61.0758 2.25021 61.75C2.25021 62.4242 2.38635 63.0907 2.64956 63.705C2.91277 64.3193 3.29699 64.8673 3.77663 65.3125C3.09129 65.9505 2.6062 66.7936 2.38587 67.7297C2.16554 68.6658 2.22041 69.6505 2.54319 70.5528C2.86596 71.4552 3.44135 72.2325 4.19282 72.7813C4.94428 73.33 5.83622 73.6243 6.75 73.625H68.625C68.9234 73.625 69.2095 73.4999 69.4205 73.2772C69.6315 73.0545 69.75 72.7524 69.75 72.4375V51.0625C69.75 50.7476 69.6315 50.4455 69.4205 50.2228C69.2095 50.0001 68.9234 49.875 68.625 49.875ZM18 4.75H51.75V49.875H49.5V17.8291C49.4999 17.5142 49.3814 17.2122 49.1704 16.9896L40.1625 7.47294C40.0574 7.36195 39.9325 7.27406 39.795 7.21434C39.6575 7.15461 39.5102 7.12425 39.3615 7.125H18V4.75ZM40.5 11.1934L45.6446 16.625H40.5V11.1934ZM13.5 9.5H38.25V17.8125C38.25 18.1274 38.3685 18.4295 38.5795 18.6522C38.7905 18.8749 39.0766 19 39.375 19H47.25V49.875H13.5V9.5ZM6.75 52.25H67.5V57H63V55.8125C63 55.4976 62.8815 55.1955 62.6705 54.9728C62.4595 54.7501 62.1734 54.625 61.875 54.625H55.125C54.8266 54.625 54.5405 54.7501 54.3295 54.9728C54.1185 55.1955 54 55.4976 54 55.8125V57H6.75C6.15327 57 5.58097 56.7498 5.15901 56.3044C4.73706 55.859 4.5 55.2549 4.5 54.625C4.5 53.9951 4.73706 53.391 5.15901 52.9456C5.58097 52.5002 6.15327 52.25 6.75 52.25ZM63 59.375H67.5V64.125H63V59.375ZM60.75 57V66.6568L59.1244 65.512C58.9395 65.3818 58.7222 65.3123 58.5 65.3123C58.2778 65.3123 58.0605 65.3818 57.8756 65.512L56.25 66.6568V57H60.75ZM6.75 59.375H54V64.125H6.75C6.15327 64.125 5.58097 63.8748 5.15901 63.4294C4.73706 62.984 4.5 62.3799 4.5 61.75C4.5 61.1201 4.73706 60.516 5.15901 60.0706C5.58097 59.6252 6.15327 59.375 6.75 59.375ZM6.75 71.25C6.15327 71.25 5.58097 70.9998 5.15901 70.5544C4.73706 70.109 4.5 69.5049 4.5 68.875C4.5 68.2451 4.73706 67.641 5.15901 67.1956C5.58097 66.7502 6.15327 66.5 6.75 66.5H54V68.875C54 69.09 54.0552 69.3009 54.1599 69.4854C54.2646 69.6698 54.4147 69.8208 54.5943 69.9222C54.7739 70.0237 54.9762 70.0717 55.1796 70.0613C55.383 70.0508 55.58 69.9823 55.7494 69.863L58.5 67.925L61.2506 69.8606C61.4199 69.9798 61.6166 70.0483 61.8199 70.0589C62.0231 70.0694 62.2252 70.0216 62.4048 69.9204C62.5843 69.8193 62.7344 69.6686 62.8392 69.4845C62.9441 69.3004 62.9996 69.0898 63 68.875V66.5H67.5V71.25H6.75Z" fill="#57A4FF"/>
<path d="M68.625 14.25H65.25V10.6875C65.25 10.3726 65.1315 10.0705 64.9205 9.84781C64.7095 9.62511 64.4234 9.5 64.125 9.5V5.9375C64.125 4.99267 63.7694 4.08653 63.1365 3.41843C62.5035 2.75033 61.6451 2.375 60.75 2.375C59.8549 2.375 58.9965 2.75033 58.3635 3.41843C57.7306 4.08653 57.375 4.99267 57.375 5.9375V9.5C57.0766 9.5 56.7905 9.62511 56.5795 9.84781C56.3685 10.0705 56.25 10.3726 56.25 10.6875V39.1875C56.2482 39.3701 56.2867 39.5506 56.3625 39.7148L59.7105 46.8398C59.8033 47.0375 59.9465 47.204 60.1239 47.3206C60.3014 47.4372 60.5061 47.4993 60.7151 47.5C60.9233 47.4998 61.1273 47.4386 61.3044 47.3233C61.4816 47.208 61.625 47.0431 61.7186 46.8469L65.1218 39.7219C65.2036 39.5568 65.2476 39.3738 65.25 39.1875V16.625H67.5V24.9375H69.75V15.4375C69.75 15.1226 69.6315 14.8205 69.4205 14.5978C69.2095 14.3751 68.9234 14.25 68.625 14.25ZM63 11.875V14.25H58.5V11.875H63ZM59.625 5.9375C59.625 5.62256 59.7435 5.32051 59.9545 5.09781C60.1655 4.87511 60.4516 4.75 60.75 4.75C61.0484 4.75 61.3345 4.87511 61.5455 5.09781C61.7565 5.32051 61.875 5.62256 61.875 5.9375V9.5H59.625V5.9375ZM60.7297 43.6572L59.1885 40.375H62.298L60.7297 43.6572ZM63 38H58.5V16.625H63V38Z" fill="#57A4FF"/>
<path d="M30.375 19C27.9275 19 25.5349 19.7661 23.4998 21.2014C21.4648 22.6368 19.8786 24.6768 18.942 27.0637C18.0054 29.4506 17.7603 32.077 18.2378 34.6109C18.7153 37.1447 19.8939 39.4723 21.6246 41.2991C23.3552 43.1259 25.5602 44.37 27.9608 44.874C30.3613 45.378 32.8495 45.1193 35.1107 44.1307C37.372 43.142 39.3047 41.4677 40.6644 39.3196C42.0242 37.1715 42.75 34.646 42.75 32.0625C42.7461 28.5994 41.4411 25.2792 39.1212 22.8304C36.8013 20.3816 33.6559 19.0041 30.375 19ZM30.375 42.75C28.3725 42.75 26.4149 42.1232 24.7499 40.9488C23.0848 39.7745 21.7871 38.1053 21.0207 36.1524C20.2544 34.1995 20.0539 32.0506 20.4446 29.9775C20.8352 27.9043 21.7995 26 23.2155 24.5053C24.6316 23.0106 26.4357 21.9927 28.3997 21.5804C30.3638 21.168 32.3996 21.3796 34.2497 22.1885C36.0998 22.9974 37.6811 24.3673 38.7936 26.1248C39.9062 27.8824 40.5 29.9487 40.5 32.0625C40.497 34.896 39.4293 37.6126 37.5312 39.6162C35.633 41.6198 33.0594 42.7468 30.375 42.75Z" fill="#57A4FF"/>
<path d="M27 35.1334L24.6139 32.6147L23.0231 34.2938L26.2046 37.6521C26.4156 37.8747 26.7017 37.9997 27 37.9997C27.2983 37.9997 27.5844 37.8747 27.7954 37.6521L37.341 27.5761L35.7502 25.897L27 35.1334Z" fill="#57A4FF"/>
</svg>
